<svg width="120" height="120" viewBox="0 0 120 120" xmlns="http://www.w3.org/2000/svg">
    <style>
        path, rect, line { fill: none; stroke: #5d4037; stroke-width: 4px; stroke-linecap: square; }
    </style>
    <!-- Top Left -->
    <path d="M 40 10 L 10 10 L 10 40" />
    <path d="M 40 22 L 22 22 L 22 40" />
    <rect x="16" y="16" width="6" height="6" fill="#5d4037" stroke="none"/>
    <!-- Top Right -->
    <path d="M 80 10 L 110 10 L 110 40" />
    <path d="M 80 22 L 98 22 L 98 40" />
    <rect x="98" y="16" width="6" height="6" fill="#5d4037" stroke="none"/>
    <!-- Bottom Left -->
    <path d="M 40 110 L 10 110 L 10 80" />
    <path d="M 40 98 L 22 98 L 22 80" />
    <rect x="16" y="98" width="6" height="6" fill="#5d4037" stroke="none"/>
    <!-- Bottom Right -->
    <path d="M 80 110 L 110 110 L 110 80" />
    <path d="M 80 98 L 98 98 L 98 80" />
    <rect x="98" y="98" width="6" height="6" fill="#5d4037" stroke="none"/>
    <!-- Sides -->
    <line x1="40" y1="10" x2="80" y2="10" />
    <line x1="40" y1="22" x2="80" y2="22" />
    <line x1="40" y1="110" x2="80" y2="110" />
    <line x1="40" y1="98" x2="80" y2="98" />
    <line x1="10" y1="40" x2="10" y2="80" />
    <line x1="22" y1="40" x2="22" y2="80" />
    <line x1="110" y1="40" x2="110" y2="80" />
    <line x1="98" y1="40" x2="98" y2="80" />
</svg>
